<svg xmlns="http://www.w3.org/2000/svg" width="20" height="20" viewBox="0 0 20 20">
  <g id="Group_3301" data-name="Group 3301" transform="translate(-12883 -7000)">
    <circle id="Ellipse_20" data-name="Ellipse 20" cx="10" cy="10" r="10" transform="translate(12883 7000)" fill="#4c7dc0"/>
    <path id="Path_4118" data-name="Path 4118" d="M75.194,101.41a1.018,1.018,0,0,1,.74.421c.642.689,1.3,1.363,1.91,2.083.384.452.658.4,1.021-.02.614-.718,1.263-1.4,1.905-2.088.361-.388.767-.6,1.222-.176.375.347.336.858-.119,1.376-.562.64-1.147,1.256-1.721,1.883-.7.759-.694.758-.021,1.493.589.644,1.179,1.289,1.762,1.94.36.4.538.863.114,1.319s-.851.254-1.218-.134c-.662-.7-1.328-1.4-1.96-2.13-.348-.4-.6-.439-.967-.016-.63.734-1.3,1.425-1.957,2.133-.364.392-.759.6-1.215.174-.374-.353-.341-.862.113-1.377.64-.724,1.286-1.444,1.961-2.128.393-.4.341-.678-.022-1.053-.7-.724-1.373-1.484-2.047-2.238a.879.879,0,0,1-.184-.987.721.721,0,0,1,.684-.474" transform="translate(12814.658 6904.35)" fill="#f5f5f5"/>
  </g>
</svg>
