<svg xmlns="http://www.w3.org/2000/svg" width="17.06" height="16.327" viewBox="0 0 17.06 16.327">
  <g id="Group_2628" data-name="Group 2628" transform="translate(0.298 0.25)">
    <path id="Path_3548" data-name="Path 3548" d="M28.55,21.784c.253-.779.5-1.546.752-2.314q.36-1.113.719-2.227a.973.973,0,0,1,1.885,0c.473,1.45.947,2.9,1.412,4.353a.235.235,0,0,0,.274.2c1.515-.006,3.03,0,4.544,0a.973.973,0,0,1,1.027.671.993.993,0,0,1-.419,1.158q-1.858,1.359-3.721,2.71a.224.224,0,0,0-.1.3q.72,2.172,1.425,4.348a.977.977,0,0,1-.654,1.33,1,1,0,0,1-.877-.2c-1.217-.889-2.438-1.771-3.651-2.666a.28.28,0,0,0-.4,0c-1.208.89-2.424,1.767-3.635,2.653a1.024,1.024,0,0,1-.894.211.967.967,0,0,1-.666-1.288Q26.275,28.83,27,26.648a.245.245,0,0,0-.1-.337q-1.85-1.333-3.689-2.684A.994.994,0,0,1,22.9,22.2a.973.973,0,0,1,.855-.418c1.508.005,3.016,0,4.523,0Zm-2.23.664c-.865,0-1.729,0-2.594,0a.325.325,0,0,0-.2.593c.049.039.1.075.149.112q1.994,1.454,3.99,2.9a.247.247,0,0,1,.114.335c-.525,1.585-1.039,3.175-1.559,4.762-.057.175-.092.343.085.465s.309.031.452-.073c1.351-.986,2.705-1.968,4.054-2.956a.212.212,0,0,1,.3,0c.694.514,1.4,1.019,2.094,1.528q1.005.732,2.011,1.465a.325.325,0,0,0,.4.04.32.32,0,0,0,.108-.405c-.017-.053-.035-.105-.052-.158-.507-1.555-1.012-3.11-1.528-4.663a.247.247,0,0,1,.112-.336c.481-.337.952-.689,1.426-1.036q1.324-.965,2.648-1.928a.388.388,0,0,0,.21-.355c-.018-.195-.151-.29-.4-.29-1.674,0-3.347,0-5.021,0a.25.25,0,0,1-.292-.2c-.312-.988-.635-1.971-.955-2.955-.2-.623-.408-1.247-.61-1.87a.3.3,0,0,0-.314-.248.3.3,0,0,0-.291.249c-.01.033-.022.065-.033.1q-.766,2.364-1.528,4.728a.236.236,0,0,1-.271.2C27.993,22.444,27.156,22.448,26.32,22.448Z" transform="translate(-22.712 -16.51)" fill="#fffdfd" stroke="#1c2936" stroke-width="0.5"/>
  </g>
</svg>
