<svg xmlns="http://www.w3.org/2000/svg" xmlns:xlink="http://www.w3.org/1999/xlink" width="20.589" height="18.93" viewBox="0 0 20.589 18.93">
  <defs>
    <clipPath id="clip-path">
      <rect id="Rectangle_3838" data-name="Rectangle 3838" width="20.589" height="18.93" transform="translate(0 0)" fill="#f8b097"/>
    </clipPath>
  </defs>
  <g id="Group_2789" data-name="Group 2789" transform="translate(0 3)">
    <g id="Mask_Group_2788" data-name="Mask Group 2788" transform="translate(0 -3)" clip-path="url(#clip-path)">
      <path id="Path_3760" data-name="Path 3760" d="M12.269,10.078l.007,0c.532-.373,1.053-.762,1.577-1.146L16.782,6.8a.429.429,0,0,0,.232-.393c-.02-.216-.167-.321-.442-.321H11.018a.277.277,0,0,1-.323-.221h0c-.345-1.093-.7-2.18-1.056-3.269C9.418,1.9,9.188,1.214,8.964.525a.341.341,0,0,0-.669,0C8.284.562,8.271.6,8.258.636q-.847,2.615-1.69,5.23a.261.261,0,0,1-.3.222h0c-.92-.009-1.846,0-2.771,0H.628a.36.36,0,0,0-.221.656c.054.043.111.083.165.124Q2.778,8.471,4.985,10.07a.273.273,0,0,1,.129.364l0,.006c-.581,1.753-1.149,3.512-1.724,5.267-.063.193-.1.379.094.514s.342.034.5-.081q2.241-1.636,4.484-3.27a.235.235,0,0,1,.332,0h0c.768.569,1.549,1.127,2.316,1.69l2.224,1.621a.36.36,0,0,0,.443.044.354.354,0,0,0,.119-.448c-.019-.059-.039-.116-.057-.175-.561-1.72-1.119-3.44-1.69-5.158a.273.273,0,0,1,.117-.368" transform="translate(1.662 1.662)" fill="#f8b097"/>
      <path id="Path_3761" data-name="Path 3761" d="M12.269,10.078l.007,0c.532-.373,1.053-.762,1.577-1.146L16.782,6.8a.429.429,0,0,0,.232-.393c-.02-.216-.167-.321-.442-.321H11.018a.277.277,0,0,1-.323-.221h0c-.345-1.093-.7-2.18-1.056-3.269C9.418,1.9,9.188,1.214,8.964.525a.341.341,0,0,0-.669,0C8.284.562,8.271.6,8.258.636q-.847,2.615-1.69,5.23a.261.261,0,0,1-.3.222h0c-.92-.009-1.846,0-2.771,0H.628a.36.36,0,0,0-.221.656c.054.043.111.083.165.124Q2.778,8.471,4.985,10.07a.273.273,0,0,1,.129.364l0,.006c-.581,1.753-1.149,3.512-1.724,5.267-.063.193-.1.379.094.514s.342.034.5-.081q2.241-1.636,4.484-3.27a.235.235,0,0,1,.332,0h0c.768.569,1.549,1.127,2.316,1.69l2.224,1.621a.36.36,0,0,0,.443.044.354.354,0,0,0,.119-.448c-.019-.059-.039-.116-.057-.175-.561-1.72-1.119-3.44-1.69-5.158A.273.273,0,0,1,12.269,10.078Z" transform="translate(1.662 1.662)" fill="#f8b097"/>
    </g>
  </g>
</svg>
