<svg xmlns="http://www.w3.org/2000/svg" xmlns:xlink="http://www.w3.org/1999/xlink" width="20" height="20" viewBox="0 0 20 20">
  <defs>
    <clipPath id="clip-path">
      <rect id="Rectangle_4061" data-name="Rectangle 4061" width="15.099" height="15.089" fill="#fff"/>
    </clipPath>
  </defs>
  <g id="Group_3300" data-name="Group 3300" transform="translate(-431 -195)">
    <circle id="Ellipse_20" data-name="Ellipse 20" cx="10" cy="10" r="10" transform="translate(431 195)" fill="#4c7dc0"/>
    <g id="Group_2951" data-name="Group 2951" transform="translate(431.451 199.455)">
      <g id="Group_2881" data-name="Group 2881" clip-path="url(#clip-path)">
        <path id="Path_4111" data-name="Path 4111" d="M137.052,0a2.025,2.025,0,0,1,1.835,1.272,2.045,2.045,0,0,1-.35,2.265c-.065.077-.137.149-.209.22q-3.084,3.085-6.166,6.173a1.523,1.523,0,0,1-.761.431c-.8.188-1.6.394-2.4.593a.686.686,0,0,1-.883-.876c.217-.867.436-1.733.65-2.6a.879.879,0,0,1,.24-.424q3.2-3.2,6.4-6.4A2.21,2.21,0,0,1,137.052,0M129.7,9.376c.482-.121.935-.236,1.388-.348a.3.3,0,0,0,.14-.1q3.114-3.113,6.226-6.227a.765.765,0,1,0-1.078-1.082q-3.12,3.117-6.238,6.237a.3.3,0,0,0-.094.144c-.11.449-.224.9-.345,1.376" transform="translate(-123.985)" fill="#fff"/>
      </g>
    </g>
  </g>
</svg>
