<svg xmlns="http://www.w3.org/2000/svg" width="19.439" height="19.654" viewBox="0 0 19.439 19.654">
  <g id="Light-M-seetings" transform="translate(0 0)">
    <path id="Path_4272" data-name="Path 4272" d="M20.352-63.076l-.394-3.151a4.748,4.748,0,0,1-.852-.39,5.492,5.492,0,0,1-.781-.537l-2.918,1.233L13.02-70.059l2.524-1.908q-.036-.231-.051-.463t-.015-.464q0-.221.015-.449t.051-.5L13.02-75.748l2.387-4.118,2.908,1.223a6.611,6.611,0,0,1,.8-.542,5.27,5.27,0,0,1,.835-.395l.4-3.151h4.774l.394,3.161a4.864,4.864,0,0,1,.842.395,6.919,6.919,0,0,1,.761.532l2.948-1.223,2.387,4.118L29.894-73.81a2.416,2.416,0,0,1,.061.469q0,.218,0,.439t-.01.429a2.976,2.976,0,0,1-.072.5l2.544,1.918-2.387,4.138-2.912-1.243a6.745,6.745,0,0,1-.784.542,4.729,4.729,0,0,1-.82.385l-.394,3.161ZM21.7-64.628h2.033L24.11-67.4a5.76,5.76,0,0,0,1.447-.588,6.391,6.391,0,0,0,1.264-.98l2.57,1.08,1.018-1.758-2.244-1.691a4.232,4.232,0,0,0,.176-.788,6.476,6.476,0,0,0,.047-.78,6.315,6.315,0,0,0-.047-.78,4.046,4.046,0,0,0-.176-.768l2.264-1.711L29.411-77.92l-2.6,1.1a5.5,5.5,0,0,0-1.244-.981,5.347,5.347,0,0,0-1.467-.6l-.326-2.771H21.721l-.342,2.761a5.4,5.4,0,0,0-1.462.573,6.165,6.165,0,0,0-1.279.995l-2.57-1.07-1.018,1.758L17.283-74.5a3.77,3.77,0,0,0-.181.766,6.5,6.5,0,0,0-.052.837,5.985,5.985,0,0,0,.052.792,4.524,4.524,0,0,0,.171.766l-2.224,1.691,1.018,1.758,2.56-1.086a5.8,5.8,0,0,0,1.259.991,5.85,5.85,0,0,0,1.482.593ZM22.751-69.8a2.992,2.992,0,0,0,2.2-.906,2.992,2.992,0,0,0,.906-2.2,2.992,2.992,0,0,0-.906-2.2,2.992,2.992,0,0,0-2.2-.906,2.984,2.984,0,0,0-2.205.906,3.006,3.006,0,0,0-.9,2.2,3.006,3.006,0,0,0,.9,2.2A2.984,2.984,0,0,0,22.751-69.8Z" transform="translate(-13.02 82.73)" fill="#063341"/>
  </g>
</svg>
