<svg xmlns="http://www.w3.org/2000/svg" width="21.974" height="15.898" viewBox="0 0 21.974 15.898">
  <g id="Light-M-payment" transform="translate(0 0)">
    <path id="Path_4248" data-name="Path 4248" d="M22.111-63.393a2.611,2.611,0,0,1-1.92-.786,2.611,2.611,0,0,1-.786-1.92,2.611,2.611,0,0,1,.786-1.92,2.611,2.611,0,0,1,1.92-.786,2.611,2.611,0,0,1,1.92.786,2.611,2.611,0,0,1,.786,1.92,2.611,2.611,0,0,1-.786,1.92A2.611,2.611,0,0,1,22.111-63.393Zm-7.137,3.35a1.883,1.883,0,0,1-1.381-.575A1.883,1.883,0,0,1,13.018-62v-8.2a1.884,1.884,0,0,1,.575-1.382,1.883,1.883,0,0,1,1.381-.575H29.249a1.883,1.883,0,0,1,1.381.575A1.884,1.884,0,0,1,31.2-70.2V-62a1.883,1.883,0,0,1-.575,1.381,1.883,1.883,0,0,1-1.381.575ZM16.6-61.665H27.626a1.882,1.882,0,0,1,.575-1.383,1.886,1.886,0,0,1,1.381-.573v-4.953a1.882,1.882,0,0,1-1.383-.575,1.886,1.886,0,0,1-.573-1.381H16.6a1.882,1.882,0,0,1-.575,1.383,1.886,1.886,0,0,1-1.381.573v4.953a1.882,1.882,0,0,1,1.383.575A1.886,1.886,0,0,1,16.6-61.665Zm11.382,5.41H11.187a1.884,1.884,0,0,1-1.382-.575,1.883,1.883,0,0,1-.575-1.381V-68.928h1.623v10.716a.318.318,0,0,0,.1.229.318.318,0,0,0,.229.1H27.979Zm-13.005-5.41h-.333V-70.53h.333a.319.319,0,0,0-.234.1.32.32,0,0,0-.1.234V-62a.32.32,0,0,0,.1.234A.319.319,0,0,0,14.974-61.665Z" transform="translate(-9.231 72.153)" fill="#063341"/>
  </g>
</svg>
